<svg width="1000" height="1000" fill="none" xmlns="http://www.w3.org/2000/svg"><g stroke="#000"><path d="M100.5 100.5h99v99h-99zm103.009 13.736l98.985-1.728 1.728 98.985-98.985 1.728z"/><path d="M298.803 102.258l98.94-3.455 3.455 98.94-98.94 3.455zm99.174.9l98.864-5.181 5.182 98.864-98.865 5.181zm112.557 17.282l98.759-6.906 6.906 98.759-98.76 6.906z"/><path d="M606.542 106.17l98.623-8.628 8.629 98.623-98.624 8.628z"/><path d="M705.55 117.898l98.458-10.348 10.348 98.457-98.458 10.349z"/><path d="M801.557 96.622l98.262-12.065 12.065 98.262-98.262 12.065z"/><rect x="105.61" y="204.335" width="98.8" height="98.8" rx="1.4" transform="rotate(-1 105.61 204.335)" stroke-width="1.2"/><rect x="198.906" y="204.354" width="98.8" height="98.8" rx="1.4" transform="rotate(-2 198.906 204.354)" stroke-width="1.2"/><rect x="285.64" y="188.532" width="98.8" height="98.8" rx="1.4" transform="rotate(-4 285.64 188.532)" stroke-width="1.2"/><rect x="404.659" y="214.987" width="98.8" height="98.8" rx="1.4" transform="rotate(-6 404.659 214.987)" stroke-width="1.2"/><rect x="494.206" y="207.956" width="98.8" height="98.8" rx="1.4" transform="rotate(-8 494.206 207.956)" stroke-width="1.2"/><rect x="592.772" y="209.929" width="98.8" height="98.8" rx="1.4" transform="rotate(-10 592.772 209.929)" stroke-width="1.2"/><rect x="691.409" y="211.95" width="98.8" height="98.8" rx="1.4" transform="rotate(-12 691.409 211.95)" stroke-width="1.2"/><rect x="804.727" y="218.629" width="98.8" height="98.8" rx="1.4" transform="rotate(-14 804.727 218.629)" stroke-width="1.2"/><rect x="92.724" y="310.165" width="98.6" height="98.6" rx="3.3" transform="rotate(-2 92.724 310.165)" stroke-width="1.4"/><rect x="197.381" y="301.259" width="98.6" height="98.6" rx="3.3" transform="rotate(-4 197.381 301.259)" stroke-width="1.4"/><rect x="279.769" y="286.076" width="98.6" height="98.6" rx="3.3" transform="rotate(-6 279.769 286.076)" stroke-width="1.4"/><rect x="394.319" y="308.041" width="98.6" height="98.6" rx="3.3" transform="rotate(-8 394.319 308.041)" stroke-width="1.4"/><rect x="492.888" y="310.01" width="98.6" height="98.6" rx="3.3" transform="rotate(-10 492.888 310.01)" stroke-width="1.4"/><rect x="591.527" y="312.027" width="98.6" height="98.6" rx="3.3" transform="rotate(-12 591.527 312.027)" stroke-width="1.4"/><rect x="690.238" y="314.091" width="98.6" height="98.6" rx="3.3" transform="rotate(-14 690.238 314.091)" stroke-width="1.4"/><rect x="793.866" y="309.044" width="98.6" height="98.6" rx="3.3" transform="rotate(-16 793.866 309.044)" stroke-width="1.4"/><rect x="104.946" y="401.085" width="98.2" height="98.2" rx="7.1" transform="rotate(-3 104.946 401.085)" stroke-width="1.8"/><rect x="196.037" y="410.301" width="98.2" height="98.2" rx="7.1" transform="rotate(-6 196.037 410.301)" stroke-width="1.8"/><rect x="293.824" y="409.185" width="98.2" height="98.2" rx="7.1" transform="rotate(-9 293.824 409.185)" stroke-width="1.8"/><rect x="391.764" y="412.181" width="98.2" height="98.2" rx="7.1" transform="rotate(-12 391.764 412.181)" stroke-width="1.8"/><rect x="489.865" y="415.281" width="98.2" height="98.2" rx="7.1" transform="rotate(-15 489.865 415.281)" stroke-width="1.8"/><rect x="584.134" y="405.48" width="98.2" height="98.2" rx="7.1" transform="rotate(-18 584.134 405.48)" stroke-width="1.8"/><rect x="686.565" y="421.757" width="98.2" height="98.2" rx="7.1" transform="rotate(-21 686.565 421.757)" stroke-width="1.8"/><rect x="775.188" y="425.13" width="98.2" height="98.2" rx="7.1" transform="rotate(-24 775.188 425.13)" stroke-width="1.8"/><rect x="102.021" y="504.816" width="97.4" height="97.4" rx="14.7" transform="rotate(-4 102.021 504.816)" stroke-width="2.6"/><rect x="194.996" y="503.552" width="97.4" height="97.4" rx="14.7" transform="rotate(-8 194.996 503.552)" stroke-width="2.6"/><rect x="292.239" y="512.489" width="97.4" height="97.4" rx="14.7" transform="rotate(-12 292.239 512.489)" stroke-width="2.6"/><rect x="386.608" y="503.455" width="97.4" height="97.4" rx="14.7" transform="rotate(-16 386.608 503.455)" stroke-width="2.6"/><rect x="487.666" y="509.979" width="97.4" height="97.4" rx="14.7" transform="rotate(-20 487.666 509.979)" stroke-width="2.6"/></g><g stroke="#000"><rect x="585.702" y="525.318" width="97.4" height="97.4" rx="14.7" transform="rotate(-24 585.702 525.318)" stroke-width="2.6"/><rect x="684.137" y="529.864" width="97.4" height="97.4" rx="14.7" transform="rotate(-28 684.137 529.864)" stroke-width="2.6"/><rect x="776.791" y="542.406" width="97.4" height="97.4" rx="14.7" transform="rotate(-32 776.791 542.406)" stroke-width="2.6"/><rect x="93.108" y="606.457" width="95.8" height="95.8" rx="29.9" transform="rotate(-5 93.108 606.457)" stroke-width="4.2"/><rect x="194.51" y="616.145" width="95.8" height="95.8" rx="29.9" transform="rotate(-10 194.51 616.145)" stroke-width="4.2"/><rect x="293.572" y="607.367" width="95.8" height="95.8" rx="29.9" transform="rotate(-15 293.572 607.367)" stroke-width="4.2"/><rect x="388.692" y="630.457" width="95.8" height="95.8" rx="29.9" transform="rotate(-20 388.692 630.457)" stroke-width="4.2"/><rect x="497.791" y="631.278" width="95.8" height="95.8" rx="29.9" transform="rotate(-25 497.791 631.278)" stroke-width="4.2"/><rect x="600.869" y="642.769" width="95.8" height="95.8" rx="29.9" transform="rotate(-30 600.869 642.769)" stroke-width="4.2"/><rect x="694.925" y="652.873" width="95.8" height="95.8" rx="29.9" transform="rotate(-35 694.925 652.873)" stroke-width="4.2"/><rect x="782.959" y="653.538" width="95.8" height="95.8" rx="29.9" transform="rotate(-40 782.959 653.538)" stroke-width="4.2"/><rect x="105.841" y="707.911" width="92.6" height="92.6" rx="46.3" transform="rotate(-5 105.841 707.911)" stroke-width="7.4"/><rect x="196.363" y="706.443" width="92.6" height="92.6" rx="46.3" transform="rotate(-10 196.363 706.443)" stroke-width="7.4"/><rect x="293.532" y="721.498" width="92.6" height="92.6" rx="46.3" transform="rotate(-15 293.532 721.498)" stroke-width="7.4"/><rect x="388.742" y="738.413" width="92.6" height="92.6" rx="46.3" transform="rotate(-20 388.742 738.413)" stroke-width="7.4"/><rect x="488.917" y="742.051" width="92.6" height="92.6" rx="46.3" transform="rotate(-25 488.917 742.051)" stroke-width="7.4"/><rect x="598.054" y="750.354" width="92.6" height="92.6" rx="46.3" transform="rotate(-30 598.054 750.354)" stroke-width="7.4"/><rect x="694.153" y="753.266" width="92.6" height="92.6" rx="46.3" transform="rotate(-35 694.153 753.266)" stroke-width="7.4"/><rect x="799.213" y="744.735" width="92.6" height="92.6" rx="46.3" transform="rotate(-40 799.213 744.735)" stroke-width="7.4"/><rect x="96.308" y="810.82" width="86.2" height="86.2" rx="43.1" transform="rotate(-5 96.308 810.82)" stroke-width="13.8"/><rect x="199.993" y="830.962" width="86.2" height="86.2" rx="43.1" transform="rotate(-10 199.993 830.962)" stroke-width="13.8"/><rect x="287.451" y="790.761" width="86.2" height="86.2" rx="43.1" transform="rotate(-15 287.451 790.761)" stroke-width="13.8"/><rect x="374.844" y="824.326" width="86.2" height="86.2" rx="43.1" transform="rotate(-20 374.844 824.326)" stroke-width="13.8"/><rect x="482.17" y="844.599" width="86.2" height="86.2" rx="43.1" transform="rotate(-25 482.17 844.599)" stroke-width="13.8"/><rect x="604.426" y="829.526" width="86.2" height="86.2" rx="43.1" transform="rotate(-30 604.426 829.526)" stroke-width="13.8"/><rect x="707.61" y="838.052" width="86.2" height="86.2" rx="43.1" transform="rotate(-35 707.61 838.052)" stroke-width="13.8"/><rect x="817.721" y="878.129" width="86.2" height="86.2" rx="43.1" transform="rotate(-40 817.721 878.129)" stroke-width="13.8"/></g></svg>